<svg width="78" height="73" viewBox="0 0 78 73" fill="none" xmlns="http://www.w3.org/2000/svg">
<path d="M28.3687 34.5976C29.9018 34.5976 31.3368 34.5976 32.8351 34.5976C32.8351 47.2102 32.8351 59.7605 32.8351 72.3805C32.5198 72.3955 32.2039 72.4235 31.8879 72.4236C24.9234 72.426 17.9589 72.4264 10.9943 72.4247C8.37534 72.424 7.08284 71.1422 7.08215 68.5316C7.07921 57.5572 7.08079 46.5828 7.08072 35.6084C7.08071 35.318 7.08072 35.0276 7.08072 34.5976C14.175 34.5976 21.2227 34.5976 28.3687 34.5976Z" fill="#080607"/>
<path d="M45.05 72.1999C45.033 71.9738 45.0012 71.7476 45.0012 71.5215C44.9988 59.501 44.999 47.4805 44.999 35.4599C44.999 35.2065 44.999 34.953 44.999 34.649C53.6008 34.649 62.1247 34.649 70.7874 34.649C70.7874 34.9742 70.7874 35.3183 70.7874 35.6624C70.7872 46.6079 70.7877 57.5534 70.7865 68.4989C70.7862 71.1789 69.527 72.4248 66.82 72.4247C59.6896 72.4246 52.5592 72.4225 45.3164 72.3611C45.1632 72.2514 45.1119 72.2177 45.05 72.1999Z" fill="#080607"/>
<path d="M40.2887 25.3262C39.8309 24.6134 39.4148 23.9575 39.0181 23.332C37.8608 24.8539 36.8173 26.4555 35.5393 27.8427C34.2543 29.2376 32.736 30.4192 31.2446 31.7622C29.8607 29.7245 28.621 27.8991 27.4767 26.2143C28.8378 24.811 30.2857 23.5764 31.4024 22.0943C32.5205 20.6105 33.3078 18.8795 34.24 17.2568C34.1537 17.18 34.0674 17.1032 33.9811 17.0264C33.6794 17.1631 33.3835 17.3148 33.0751 17.4342C31.375 18.0922 29.7212 18.9646 27.9603 19.3528C23.0244 20.4409 18.039 17.189 16.8187 12.2739C15.6124 7.41531 18.5041 2.37438 23.3126 0.846662C26.198 -0.070049 28.8864 0.559947 31.4653 1.81377C34.0112 3.05152 36.4827 4.44087 38.8733 5.70372C41.7089 4.26843 44.5112 2.73137 47.4129 1.41076C51.1959 -0.310991 54.8099 0.107231 58.0319 2.81497C61.1443 5.43062 62.1507 9.74719 60.6142 13.5637C59.1084 17.304 55.2443 19.8293 51.2695 19.5826C49.0453 19.4445 47.0464 18.5162 45.0685 17.5722C44.6952 17.3941 44.3265 17.2062 43.7458 16.919C45.0961 20.7839 47.2143 23.7947 50.5417 25.9963C49.2758 27.868 48.0394 29.6961 46.7496 31.6031C44.152 29.9456 42.0456 27.8683 40.2887 25.3262ZM26.1337 12.8141C28.4871 12.4699 30.3647 11.1044 32.553 10.0056C31.744 9.55684 31.136 9.1857 30.4987 8.87373C29.5056 8.3876 28.5105 7.89741 27.4843 7.48839C25.6673 6.76415 24.0064 7.53517 23.5265 9.26899C23.0723 10.91 24.1285 12.4374 26.1337 12.8141ZM54.082 8.61304C53.1844 7.35357 52.1598 6.83376 50.9182 7.32255C49.0565 8.05551 47.2652 8.96622 45.444 9.80133C45.4478 9.91424 45.4517 10.0271 45.4555 10.14C47.0887 10.9316 48.7096 11.7497 50.3593 12.5057C51.5326 13.0434 52.672 12.9451 53.6067 11.9818C54.5172 11.0435 54.7053 9.94818 54.082 8.61304Z" fill="#0DC863"/>
<path d="M7.95362 15.9286C10.2763 15.9283 12.5011 15.9411 14.7254 15.9185C15.2557 15.9131 15.5875 16.0363 15.9159 16.5157C18.8157 20.7491 22.8818 22.5098 28.1057 22.2201C26.693 23.231 25.2803 24.2419 23.7716 25.3215C25.2353 27.4978 26.7094 29.6892 28.2834 32.0294C27.8125 32.0294 27.5296 32.0294 27.2468 32.0294C19.7879 32.0292 12.329 32.0304 4.87012 32.0282C2.00336 32.0274 0.757665 30.7798 0.757089 27.9201C0.756538 25.1832 0.750673 22.4463 0.758745 19.7094C0.765821 17.3101 2.13056 15.9432 4.51862 15.9296C5.63087 15.9233 6.74319 15.9286 7.95362 15.9286Z" fill="#080607"/>
<path d="M72.8819 32.0283C65.1166 32.0284 57.444 32.0284 49.5925 32.0284C51.1669 29.6915 52.6305 27.5192 54.1095 25.3239C52.636 24.2713 51.2205 23.2601 49.805 22.2488C53.8181 22.4826 57.2504 21.425 60.1155 18.7367C60.7982 18.0962 61.3912 17.3395 61.9189 16.5643C62.2575 16.0668 62.6038 15.9098 63.1882 15.9147C66.5572 15.9433 69.9266 15.9241 73.2957 15.9306C75.7652 15.9353 77.104 17.2754 77.1096 19.744C77.1157 22.448 77.1119 25.152 77.1104 27.856C77.1088 30.8251 75.9322 32.011 72.8819 32.0283Z" fill="#080607"/>
<path d="M45.0433 72.2601C45.1119 72.2177 45.1632 72.2514 45.226 72.3421C45.1775 72.3622 45.1071 72.3413 45.0433 72.2601Z" fill="#080607"/>
<path d="M26.0502 12.8059C24.1285 12.4374 23.0723 10.91 23.5265 9.26899C24.0064 7.53517 25.6673 6.76415 27.4843 7.48839C28.5105 7.89741 29.5056 8.3876 30.4987 8.87373C31.136 9.1857 31.744 9.55684 32.553 10.0056C30.3647 11.1044 28.4871 12.4699 26.0502 12.8059Z" fill="#F9F9F9"/>
<path d="M54.1137 8.68054C54.7054 9.94818 54.5172 11.0435 53.6067 11.9818C52.672 12.9451 51.5326 13.0434 50.3593 12.5057C48.7096 11.7497 47.0887 10.9316 45.4555 10.14C45.4517 10.0271 45.4478 9.91424 45.444 9.80133C47.2652 8.96622 49.0565 8.05551 50.9182 7.32255C52.1598 6.83376 53.1844 7.35356 54.1137 8.68054Z" fill="#FAF9FA"/>
</svg>
