<svg width="77" height="73" viewBox="0 0 77 73" fill="none" xmlns="http://www.w3.org/2000/svg">
<path d="M27.7318 34.5976C29.265 34.5976 30.7 34.5976 32.1983 34.5976C32.1983 47.2102 32.1983 59.7605 32.1983 72.3805C31.883 72.3955 31.567 72.4235 31.2511 72.4236C24.2865 72.426 17.322 72.4264 10.3575 72.4247C7.73849 72.424 6.446 71.1422 6.4453 68.5316C6.44237 57.5572 6.44395 46.5828 6.44388 35.6084C6.44387 35.318 6.44388 35.0276 6.44388 34.5976C13.5381 34.5976 20.5859 34.5976 27.7318 34.5976Z" fill="#080607"/>
<path d="M44.4132 72.1999C44.3962 71.9738 44.3644 71.7476 44.3643 71.5215C44.3619 59.501 44.3622 47.4805 44.3622 35.4599C44.3622 35.2065 44.3622 34.953 44.3622 34.649C52.964 34.649 61.4878 34.649 70.1506 34.649C70.1506 34.9742 70.1506 35.3183 70.1506 35.6624C70.1504 46.6079 70.1508 57.5534 70.1496 68.4989C70.1494 71.1789 68.8901 72.4248 66.1831 72.4247C59.0528 72.4246 51.9224 72.4225 44.6796 72.3611C44.5264 72.2514 44.4751 72.2177 44.4132 72.1999Z" fill="#080607"/>
<path d="M39.6518 25.3262C39.194 24.6134 38.778 23.9575 38.3812 23.332C37.2239 24.8539 36.1804 26.4555 34.9025 27.8427C33.6175 29.2376 32.0992 30.4192 30.6077 31.7622C29.2238 29.7245 27.9841 27.8991 26.8399 26.2143C28.201 24.811 29.6488 23.5764 30.7656 22.0943C31.8836 20.6105 32.6709 18.8795 33.6032 17.2568C33.5169 17.18 33.4305 17.1032 33.3442 17.0264C33.0426 17.1631 32.7467 17.3148 32.4382 17.4342C30.7382 18.0922 29.0844 18.9646 27.3235 19.3528C22.3876 20.4409 17.4022 17.189 16.1819 12.2739C14.9756 7.41531 17.8673 2.37438 22.6758 0.846662C25.5612 -0.070049 28.2496 0.559947 30.8285 1.81377C33.3744 3.05152 35.8459 4.44087 38.2365 5.70372C41.0721 4.26843 43.8744 2.73137 46.7761 1.41076C50.5591 -0.310991 54.1731 0.107231 57.3951 2.81497C60.5074 5.43062 61.5139 9.74719 59.9774 13.5637C58.4716 17.304 54.6074 19.8293 50.6327 19.5826C48.4085 19.4445 46.4095 18.5162 44.4316 17.5722C44.0583 17.3941 43.6897 17.2062 43.1089 16.919C44.4592 20.7839 46.5775 23.7947 49.9049 25.9963C48.639 27.868 47.4026 29.6961 46.1128 31.6031C43.5152 29.9456 41.4088 27.8683 39.6518 25.3262ZM25.4969 12.8141C27.8503 12.4699 29.7279 11.1044 31.9161 10.0056C31.1072 9.55684 30.4991 9.1857 29.8618 8.87373C28.8688 8.3876 27.8737 7.89741 26.8475 7.48839C25.0305 6.76415 23.3696 7.53517 22.8897 9.26899C22.4355 10.91 23.4917 12.4374 25.4969 12.8141ZM53.4451 8.61304C52.5476 7.35357 51.523 6.83376 50.2814 7.32255C48.4196 8.05551 46.6284 8.96622 44.8071 9.80133C44.811 9.91424 44.8148 10.0271 44.8187 10.14C46.4519 10.9316 48.0728 11.7497 49.7224 12.5057C50.8957 13.0434 52.0352 12.9451 52.9699 11.9818C53.8804 11.0435 54.0685 9.94818 53.4451 8.61304Z" fill="#DD0000"/>
<path d="M7.31678 15.9286C9.63951 15.9283 11.8642 15.9411 14.0886 15.9185C14.6188 15.9131 14.9506 16.0363 15.279 16.5157C18.1789 20.7491 22.245 22.5098 27.4688 22.2201C26.0561 23.231 24.6434 24.2419 23.1347 25.3215C24.5985 27.4978 26.0725 29.6892 27.6465 32.0294C27.1756 32.0294 26.8928 32.0294 26.61 32.0294C19.1511 32.0292 11.6922 32.0304 4.23328 32.0282C1.36652 32.0274 0.120824 30.7798 0.120249 27.9201C0.119697 25.1832 0.113833 22.4463 0.121904 19.7094C0.12898 17.3101 1.49371 15.9432 3.88178 15.9296C4.99403 15.9233 6.10634 15.9286 7.31678 15.9286Z" fill="#080607"/>
<path d="M72.2451 32.0283C64.4798 32.0284 56.8072 32.0284 48.9557 32.0284C50.5301 29.6915 51.9936 27.5192 53.4727 25.3239C51.9992 24.2713 50.5837 23.2601 49.1682 22.2488C53.1812 22.4826 56.6136 21.425 59.4787 18.7367C60.1614 18.0962 60.7544 17.3395 61.2821 16.5643C61.6207 16.0668 61.9669 15.9098 62.5514 15.9147C65.9204 15.9433 69.2897 15.9241 72.6589 15.9306C75.1283 15.9353 76.4672 17.2754 76.4727 19.744C76.4788 22.448 76.475 25.152 76.4736 27.856C76.472 30.8251 75.2953 32.011 72.2451 32.0283Z" fill="#080607"/>
<path d="M44.4065 72.2601C44.475 72.2177 44.5264 72.2514 44.5891 72.3421C44.5407 72.3622 44.4702 72.3413 44.4065 72.2601Z" fill="#080607"/>
<path d="M25.4134 12.8059C23.4917 12.4374 22.4355 10.91 22.8897 9.26899C23.3696 7.53517 25.0305 6.76415 26.8475 7.48839C27.8737 7.89741 28.8688 8.3876 29.8618 8.87373C30.4991 9.1857 31.1072 9.55684 31.9161 10.0056C29.7279 11.1044 27.8503 12.4699 25.4134 12.8059Z" fill="#F9F9F9"/>
<path d="M53.4768 8.68054C54.0685 9.94818 53.8804 11.0435 52.9699 11.9818C52.0352 12.9451 50.8957 13.0434 49.7224 12.5057C48.0728 11.7497 46.4519 10.9316 44.8187 10.14C44.8148 10.0271 44.811 9.91424 44.8071 9.80133C46.6284 8.96622 48.4196 8.05551 50.2814 7.32255C51.523 6.83376 52.5476 7.35356 53.4768 8.68054Z" fill="#FAF9FA"/>
</svg>
