<svg width="77" height="73" viewBox="0 0 77 73" fill="none" xmlns="http://www.w3.org/2000/svg">
<path d="M28.0502 34.5976C29.5833 34.5976 31.0183 34.5976 32.5166 34.5976C32.5166 47.2102 32.5166 59.7605 32.5166 72.3805C32.2013 72.3955 31.8854 72.4235 31.5694 72.4236C24.6049 72.426 17.6404 72.4264 10.6758 72.4247C8.05685 72.424 6.76436 71.1422 6.76366 68.5316C6.76073 57.5572 6.76231 46.5828 6.76223 35.6084C6.76223 35.318 6.76223 35.0276 6.76223 34.5976C13.8565 34.5976 20.9043 34.5976 28.0502 34.5976Z" fill="#080607"/>
<path d="M44.7315 72.1999C44.7146 71.9738 44.6827 71.7476 44.6827 71.5215C44.6803 59.501 44.6805 47.4805 44.6805 35.4599C44.6805 35.2065 44.6805 34.953 44.6805 34.649C53.2824 34.649 61.8062 34.649 70.4689 34.649C70.4689 34.9742 70.4689 35.3183 70.4689 35.6624C70.4687 46.6079 70.4692 57.5534 70.468 68.4989C70.4677 71.1789 69.2085 72.4248 66.5015 72.4247C59.3711 72.4246 52.2407 72.4225 44.9979 72.3611C44.8447 72.2514 44.7934 72.2177 44.7315 72.1999Z" fill="#080607"/>
<path d="M39.9702 25.3262C39.5124 24.6134 39.0963 23.9575 38.6996 23.332C37.5423 24.8539 36.4988 26.4555 35.2208 27.8427C33.9359 29.2376 32.4176 30.4192 30.9261 31.7622C29.5422 29.7245 28.3025 27.8991 27.1582 26.2143C28.5193 24.811 29.9672 23.5764 31.0839 22.0943C32.202 20.6105 32.9893 18.8795 33.9216 17.2568C33.8352 17.18 33.7489 17.1032 33.6626 17.0264C33.3609 17.1631 33.0651 17.3148 32.7566 17.4342C31.0565 18.0922 29.4028 18.9646 27.6418 19.3528C22.706 20.4409 17.7205 17.189 16.5002 12.2739C15.294 7.41531 18.1856 2.37438 22.9942 0.846662C25.8795 -0.070049 28.568 0.559947 31.1469 1.81377C33.6927 3.05152 36.1643 4.44087 38.5548 5.70372C41.3904 4.26843 44.1928 2.73137 47.0944 1.41076C50.8774 -0.310991 54.4915 0.107231 57.7134 2.81497C60.8258 5.43062 61.8323 9.74719 60.2957 13.5637C58.7899 17.304 54.9258 19.8293 50.9511 19.5826C48.7269 19.4445 46.7279 18.5162 44.75 17.5722C44.3767 17.3941 44.0081 17.2062 43.4273 16.919C44.7776 20.7839 46.8958 23.7947 50.2233 25.9963C48.9573 27.868 47.7209 29.6961 46.4312 31.6031C43.8335 29.9456 41.7272 27.8683 39.9702 25.3262ZM25.8152 12.8141C28.1686 12.4699 30.0463 11.1044 32.2345 10.0056C31.4255 9.55684 30.8175 9.1857 30.1802 8.87373C29.1871 8.3876 28.192 7.89741 27.1659 7.48839C25.3488 6.76415 23.6879 7.53517 23.208 9.26899C22.7538 10.91 23.81 12.4374 25.8152 12.8141ZM53.7635 8.61304C52.8659 7.35357 51.8413 6.83376 50.5998 7.32255C48.738 8.05551 46.9467 8.96622 45.1255 9.80133C45.1293 9.91424 45.1332 10.0271 45.137 10.14C46.7702 10.9316 48.3912 11.7497 50.0408 12.5057C51.2141 13.0434 52.3536 12.9451 53.2882 11.9818C54.1987 11.0435 54.3869 9.94818 53.7635 8.61304Z" fill="#0057D8"/>
<path d="M7.63514 15.9286C9.95787 15.9283 12.1826 15.9411 14.4069 15.9185C14.9372 15.9131 15.269 16.0363 15.5974 16.5157C18.4972 20.7491 22.5633 22.5098 27.7872 22.2201C26.3745 23.231 24.9618 24.2419 23.4531 25.3215C24.9169 27.4978 26.3909 29.6892 27.9649 32.0294C27.494 32.0294 27.2112 32.0294 26.9283 32.0294C19.4694 32.0292 12.0105 32.0304 4.55164 32.0282C1.68488 32.0274 0.439184 30.7798 0.438608 27.9201C0.438057 25.1832 0.432192 22.4463 0.440264 19.7094C0.447339 17.3101 1.81207 15.9432 4.20014 15.9296C5.31239 15.9233 6.4247 15.9286 7.63514 15.9286Z" fill="#080607"/>
<path d="M72.5634 32.0283C64.7981 32.0284 57.1256 32.0284 49.274 32.0284C50.8484 29.6915 52.312 27.5192 53.791 25.3239C52.3175 24.2713 50.902 23.2601 49.4865 22.2488C53.4996 22.4826 56.9319 21.425 59.7971 18.7367C60.4797 18.0962 61.0727 17.3395 61.6004 16.5643C61.939 16.0668 62.2853 15.9098 62.8698 15.9147C66.2387 15.9433 69.6081 15.9241 72.9773 15.9306C75.4467 15.9353 76.7856 17.2754 76.7911 19.744C76.7972 22.448 76.7934 25.152 76.7919 27.856C76.7903 30.8251 75.6137 32.011 72.5634 32.0283Z" fill="#080607"/>
<path d="M44.7248 72.2601C44.7934 72.2177 44.8447 72.2514 44.9075 72.3421C44.8591 72.3622 44.7886 72.3413 44.7248 72.2601Z" fill="#080607"/>
<path d="M25.7317 12.8059C23.81 12.4374 22.7538 10.91 23.208 9.26899C23.6879 7.53517 25.3488 6.76415 27.1659 7.48839C28.192 7.89741 29.1871 8.3876 30.1802 8.87373C30.8175 9.1857 31.4255 9.55684 32.2345 10.0056C30.0463 11.1044 28.1686 12.4699 25.7317 12.8059Z" fill="#F9F9F9"/>
<path d="M53.7952 8.68054C54.3869 9.94818 54.1987 11.0435 53.2882 11.9818C52.3536 12.9451 51.2141 13.0434 50.0408 12.5057C48.3912 11.7497 46.7702 10.9316 45.137 10.14C45.1332 10.0271 45.1293 9.91424 45.1255 9.80133C46.9467 8.96622 48.738 8.05551 50.5998 7.32255C51.8413 6.83376 52.8659 7.35356 53.7952 8.68054Z" fill="#FAF9FA"/>
</svg>
