<svg width="25" height="25" viewBox="0 0 25 25" fill="none" xmlns="http://www.w3.org/2000/svg">
<path d="M21.0774 2.35898L19.0774 4.35898M19.0774 4.35898L22.0774 7.35898L18.5774 10.859L15.5774 7.85898M19.0774 4.35898L15.5774 7.85898M11.4674 11.969C11.9838 12.4784 12.3942 13.085 12.6752 13.7538C12.9561 14.4225 13.102 15.1402 13.1045 15.8656C13.1069 16.591 12.9658 17.3097 12.6893 17.9803C12.4129 18.6509 12.0065 19.2602 11.4936 19.7731C10.9807 20.286 10.3713 20.6924 9.70073 20.9689C9.03011 21.2454 8.31142 21.3864 7.58606 21.384C6.86069 21.3816 6.14297 21.2357 5.47421 20.9547C4.80546 20.6738 4.19889 20.2633 3.68942 19.747C2.68755 18.7097 2.13318 17.3204 2.14572 15.8783C2.15825 14.4362 2.73668 13.0567 3.75642 12.037C4.77617 11.0172 6.15563 10.4388 7.59772 10.4263C9.0398 10.4137 10.4291 10.9681 11.4664 11.97L11.4674 11.969ZM11.4674 11.969L15.5774 7.85898" stroke="white" stroke-width="2" stroke-linecap="round" stroke-linejoin="round"/>
</svg>
